<?xml version="1.0" standalone="no"?>
<!DOCTYPE svg PUBLIC "-//W3C//DTD SVG 20010904//EN"
 "http://www.w3.org/TR/2001/REC-SVG-20010904/DTD/svg10.dtd">
<svg version="1.0" xmlns="http://www.w3.org/2000/svg"
 width="770.000000pt" height="773.000000pt" viewBox="0 0 770.000000 773.000000"
 preserveAspectRatio="xMidYMid meet">

<g transform="translate(0.000000,773.000000) scale(0.100000,-0.100000)"
fill="#000000" stroke="none">
<path d="M3462 7615 c-606 -69 -1158 -264 -1652 -583 -465 -301 -895 -745
-1176 -1216 -275 -459 -437 -927 -511 -1476 -26 -193 -26 -726 0 -920 57 -428
167 -797 348 -1170 142 -291 294 -530 490 -767 98 -119 403 -421 519 -514 512
-411 1112 -684 1732 -788 416 -71 791 -78 1232 -26 162 20 218 33 429 101 560
182 957 395 1377 738 117 96 398 379 502 506 490 603 776 1307 839 2075 15
186 7 612 -16 775 -113 832 -464 1559 -1035 2144 -606 622 -1340 989 -2220
1112 -162 22 -691 28 -858 9z m122 -387 c3 -29 8 -107 11 -173 8 -184 24 -499
30 -605 3 -52 16 -327 30 -610 13 -283 27 -548 30 -587 l5 -73 -49 0 -49 0 -6
78 c-3 42 -8 127 -11 187 -12 258 -47 938 -65 1289 -21 400 -24 528 -13 539 3
4 23 7 44 7 l38 0 5 -52z m887 12 c18 0 19 -22 19 -695 l0 -695 -50 0 -50 0 0
701 0 702 31 -7 c17 -3 40 -6 50 -6z m-2077 -332 c3 -29 24 -258 46 -508 22
-250 54 -601 70 -780 16 -178 28 -325 26 -327 -1 -2 -23 -6 -48 -9 l-46 -6 -6
53 c-4 30 -22 234 -41 454 -20 220 -49 547 -65 727 -38 418 -38 403 3 428 17
11 37 20 43 20 7 0 15 -24 18 -52z m2526 -443 l0 -345 -35 0 -35 0 0 345 0
345 35 0 35 0 0 -345z m-1729 263 c0 -24 2 -52 4 -63 1 -11 6 -81 9 -155 7
-138 9 -184 26 -465 6 -88 10 -168 10 -177 0 -15 -9 -18 -49 -18 l-48 0 -7 88
c-5 75 -46 790 -46 813 0 4 19 10 43 12 23 2 45 4 50 5 4 1 7 -17 8 -40z
m2579 -483 l0 -345 -30 0 -30 0 0 345 0 345 30 0 30 0 0 -345z m-1696 38 c3
-109 9 -291 12 -405 l7 -208 -51 0 -50 0 -6 188 c-3 103 -9 285 -12 405 l-6
217 50 0 49 0 7 -197z m2094 104 l42 -44 0 -1271 0 -1272 -50 0 -50 0 0 1315
c0 723 3 1315 8 1315 4 0 26 -20 50 -43z m-798 -922 l0 -785 -50 0 -50 0 0
785 0 785 50 0 50 0 0 -785z m-2570 728 c0 -5 9 -134 20 -288 11 -154 20 -286
20 -292 0 -8 -13 -13 -30 -13 -16 0 -30 3 -30 8 0 4 -9 133 -20 287 -11 154
-20 286 -20 293 0 7 13 12 30 12 17 0 30 -3 30 -7z m-1490 -514 c27 -228 52
-430 56 -450 l5 -36 -47 -7 c-26 -3 -49 -4 -51 -2 -7 7 -93 728 -93 779 0 41
6 55 37 92 20 25 38 43 40 41 2 -1 25 -189 53 -417z m360 178 c0 -9 120 -1246
125 -1287 5 -44 3 -48 -39 -89 l-44 -43 -6 38 c-3 22 -17 154 -31 294 -76 793
-96 990 -101 1032 -5 45 -5 47 23 51 41 6 73 8 73 4z m3270 -352 l0 -345 -50
0 -50 0 0 345 0 345 50 0 50 0 0 -345z m-3805 -1110 c75 -731 139 -1346 142
-1366 l5 -36 -47 -7 c-26 -4 -49 -6 -51 -3 -4 4 -46 401 -154 1457 -33 327
-67 656 -75 730 -8 74 -22 206 -30 292 l-15 157 38 60 c20 33 40 57 44 53 4
-4 68 -605 143 -1337z m-441 650 c8 -50 45 -290 81 -535 36 -245 68 -457 71
-471 4 -23 1 -27 -27 -33 -18 -3 -34 -4 -36 -2 -4 4 -35 205 -113 740 l-40
269 22 63 c12 35 23 63 24 61 1 -1 9 -43 18 -92z m5086 -32 c0 -71 3 -296 7
-500 l6 -373 -30 0 -30 0 -6 332 c-4 182 -7 407 -7 500 l0 168 30 0 30 0 0
-127z m-1975 -76 c369 -70 650 -222 894 -483 168 -180 340 -456 444 -712 77
-188 161 -652 222 -1217 50 -472 105 -1253 105 -1506 0 -129 0 -128 -75 -166
-22 -11 -53 -28 -70 -37 -55 -29 -204 -96 -214 -96 -10 0 -42 -13 -116 -46
-47 -20 -240 -80 -350 -107 -265 -67 -627 -103 -820 -82 -22 3 -48 5 -57 6
-24 1 -30 27 -23 101 9 107 12 808 4 1088 -17 575 -74 1047 -150 1242 l-18 46
67 25 c37 13 126 43 197 65 149 47 174 66 182 135 5 38 1 48 -23 76 -50 56
-69 53 -365 -44 -213 -70 -289 -90 -394 -105 -483 -70 -914 -47 -1194 64 -162
64 -302 187 -365 318 -38 82 -66 193 -66 266 0 69 32 187 73 268 204 405 885
812 1520 909 120 18 479 13 592 -8z m2839 -344 c-3 -159 -7 -313 -9 -343 -2
-30 -4 -99 -4 -152 l-1 -98 -51 0 -50 0 7 308 c3 169 7 325 9 347 1 22 2 82 3
133 l2 92 50 0 50 0 -6 -287z m406 -1046 l0 -853 -46 -114 c-25 -63 -48 -117
-50 -119 -2 -2 -4 433 -4 967 l0 972 50 0 50 0 0 -853z m-5601 633 c9 -108 9
-119 -13 -183 l-22 -69 -13 139 c-7 76 -15 157 -18 180 -5 40 -4 42 23 45 16
2 30 3 31 3 1 0 6 -52 12 -115z m-546 -512 c4 -18 45 -307 92 -643 47 -335 88
-622 91 -637 5 -23 1 -28 -21 -34 -14 -3 -28 -4 -31 -1 -3 3 -194 1311 -194
1334 0 2 32 10 46 12 7 0 14 -14 17 -31z m645 -577 c12 -123 19 -227 16 -232
-3 -5 -16 -9 -28 -9 -20 0 -24 6 -30 48 -6 52 -46 518 -46 536 1 6 16 -18 34
-54 31 -62 34 -76 54 -289z m744 -219 c3 -4 13 -83 22 -177 17 -181 16 -185
-31 -185 -13 0 -23 1 -23 3 0 1 -7 76 -15 167 -20 225 -21 214 13 205 15 -3
30 -9 34 -13z m792 -497 c19 -214 34 -391 32 -392 -1 -2 -23 -6 -48 -9 l-46
-6 -6 53 c-16 148 -66 741 -66 786 l0 52 43 3 42 3 7 -50 c5 -27 23 -225 42
-440z m-1714 271 c0 -9 100 -946 105 -982 l6 -42 -46 -7 c-26 -3 -49 -5 -51
-2 -3 3 -113 991 -114 1024 0 3 44 10 73 12 15 0 27 -1 27 -3z m5255 -298 c-8
-410 -12 -472 -36 -499 -10 -12 -19 -27 -19 -32 0 -6 -3 -7 -7 -3 -7 7 -5 521
2 586 1 14 3 73 4 133 l1 107 31 0 30 0 -6 -292z m-845 -708 c0 -543 -1 -560
-19 -570 -11 -5 -22 -10 -25 -10 -3 0 -6 256 -6 570 l0 570 25 0 25 0 0 -560z
m-3020 447 c0 -2 22 -151 50 -332 27 -181 48 -330 47 -331 -1 -1 -23 -4 -49
-7 -47 -6 -47 -6 -53 26 -3 17 -23 154 -45 302 -22 149 -42 284 -45 302 -4 25
-2 32 12 36 21 5 83 8 83 4z m-716 -454 c15 -149 48 -665 42 -670 -4 -4 -15 2
-26 13 -18 17 -22 54 -45 363 -14 190 -25 346 -25 348 0 2 11 3 24 3 22 0 25
-5 30 -57z m429 -535 c16 -92 48 -350 44 -354 -2 -2 -25 4 -50 15 -35 15 -46
26 -51 48 -5 24 -46 298 -46 308 0 5 37 12 71 14 23 1 28 -4 32 -31z"/>
<path d="M2134 4476 c-51 -22 -74 -61 -74 -124 0 -50 3 -58 39 -93 35 -35 44
-39 91 -39 47 0 56 4 91 39 35 35 39 44 39 89 0 59 -32 105 -87 128 -40 17
-59 17 -99 0z"/>
<path d="M2749 4351 c-35 -35 -39 -44 -39 -91 0 -47 4 -56 39 -91 35 -35 44
-39 91 -39 47 0 56 4 91 39 35 35 39 44 39 91 0 47 -4 56 -39 91 -35 35 -44
39 -91 39 -47 0 -56 -4 -91 -39z"/>
</g>
</svg>
